<?xml version="1.0" encoding="utf-8"?>
<!-- Generator: Adobe Illustrator 15.0.0, SVG Export Plug-In . SVG Version: 6.00 Build 0)  -->
<!DOCTYPE svg PUBLIC "-//W3C//DTD SVG 1.1//EN" "http://www.w3.org/Graphics/SVG/1.1/DTD/svg11.dtd">
<svg version="1.1" id="Layer_1" xmlns="http://www.w3.org/2000/svg" xmlns:xlink="http://www.w3.org/1999/xlink" x="0px" y="0px"
	 width="100px" height="100px" viewBox="0 0 100 100" enable-background="new 0 0 100 100" xml:space="preserve">
<rect x="14.646" y="14.896" transform="matrix(-0.7071 -0.7071 0.7071 -0.7071 49.8244 121.1386)" fill="#DB7121" width="70.71" height="70.709"/>
<g>
	<g>
		<polygon fill="#EBEBEB" points="50.711,43.72 40.875,43.72 40.197,36.109 50.711,36.109 50.711,28.676 50.686,28.676 
			32.074,28.676 32.252,30.67 34.078,51.152 50.711,51.152 		"/>
		<polygon fill="#EBEBEB" points="50.711,63.022 50.679,63.031 42.401,60.796 41.872,54.868 37.849,54.868 34.41,54.868 
			35.452,66.539 50.677,70.766 50.711,70.756 		"/>
	</g>
	<g>
		<polygon fill="#FFFFFF" points="50.686,43.72 50.686,51.152 59.838,51.152 58.975,60.792 50.686,63.029 50.686,70.762 
			65.923,66.539 66.034,65.283 67.781,45.716 67.962,43.72 65.959,43.72 		"/>
		<polygon fill="#FFFFFF" points="50.686,28.676 50.686,33.292 50.686,36.091 50.686,36.109 68.615,36.109 68.615,36.109 
			68.639,36.109 68.788,34.438 69.126,30.67 69.304,28.676 		"/>
	</g>
</g>
</svg>
