<?xml version="1.0" encoding="utf-8"?>
<!-- Generator: Adobe Illustrator 15.0.0, SVG Export Plug-In . SVG Version: 6.00 Build 0)  -->
<!DOCTYPE svg PUBLIC "-//W3C//DTD SVG 1.1//EN" "http://www.w3.org/Graphics/SVG/1.1/DTD/svg11.dtd">
<svg version="1.1" id="Layer_1" xmlns="http://www.w3.org/2000/svg" xmlns:xlink="http://www.w3.org/1999/xlink" x="0px" y="0px"
	 width="100px" height="100px" viewBox="0 0 100 100" enable-background="new 0 0 100 100" xml:space="preserve">
<rect x="14.646" y="14.896" transform="matrix(-0.7071 -0.7071 0.7071 -0.7071 49.8244 121.1386)" fill="#EFAC18" width="70.71" height="70.709"/>
<path fill="#F5F5F5" d="M41.647,32.263L31.197,62.613h6.836l2.397-8.877h9.451l2.396,8.877h6.836L48.662,32.263H41.647z
	 M41.512,49.728l3.643-13.489l3.643,13.489H41.512z M60.33,62.898h6.3V40.28h-6.3V62.898z M63.837,37.417
	c1.779,0,3.222-1.442,3.222-3.221c0-1.779-1.442-3.221-3.222-3.221c-1.778,0-3.221,1.442-3.221,3.221
	C60.616,35.975,62.059,37.417,63.837,37.417z"/>
</svg>
