<?xml version="1.0" encoding="utf-8"?>
<!-- Generator: Adobe Illustrator 15.0.0, SVG Export Plug-In . SVG Version: 6.00 Build 0)  -->
<!DOCTYPE svg PUBLIC "-//W3C//DTD SVG 1.1//EN" "http://www.w3.org/Graphics/SVG/1.1/DTD/svg11.dtd">
<svg version="1.1" id="Layer_1" xmlns="http://www.w3.org/2000/svg" xmlns:xlink="http://www.w3.org/1999/xlink" x="0px" y="0px"
	 width="100px" height="100px" viewBox="0 0 100 100" enable-background="new 0 0 100 100" xml:space="preserve">
<rect x="14.645" y="14.645" transform="matrix(0.7071 0.7071 -0.7071 0.7071 50.0009 -20.7106)" fill="#DC2026" width="70.71" height="70.71"/>
<g id="test-tube_1_">
	<path id="tube_1_" fill="#FFFFFF" d="M42.325,70.215L42.325,70.215c-0.65,0-1.289-0.116-1.9-0.353
		c-2.564-0.976-3.919-3.762-3.215-6.341l-0.026-0.013l0.169-0.441l13.032-33.85c0.195-0.496,0.104-1.693,0.014-2.356
		c-0.025-0.156-0.025-0.299,0.014-0.443l0.013-0.026c0.014-0.026,0.014-0.052,0.026-0.079c0.208-0.546,0.847-0.819,1.888-0.819
		c1.251,0,2.982,0.39,4.753,1.067c1.483,0.573,2.837,1.289,3.788,2.005c1.119,0.846,1.562,1.601,1.315,2.252
		c-0.015,0.026-0.026,0.052-0.04,0.078l-0.013,0.026c-0.065,0.128-0.156,0.234-0.274,0.325c-0.571,0.508-1.419,1.368-1.562,1.759
		L47.118,67.325l-0.026-0.015C46.165,69.082,44.355,70.215,42.325,70.215z M38.25,63.289l-0.039,0.091
		c-0.833,2.239,0.299,4.765,2.539,5.624c0.506,0.196,1.027,0.285,1.562,0.285c1.81,0,3.41-1.079,4.074-2.771l0.052-0.117
		l12.967-33.706c0.273-0.729,1.562-1.888,1.823-2.122l0.026-0.026c0.027-0.013,0.04-0.026,0.04-0.039l0.013-0.013
		c0.015-0.091-0.105-0.495-1.017-1.197c-0.871-0.664-2.135-1.328-3.554-1.875c-1.639-0.638-3.307-1.015-4.427-1.015
		c-0.74,0-0.988,0.156-1.028,0.235v0.013c0,0.014,0,0.026,0,0.052v0.013c0.026,0.195,0.274,1.927-0.063,2.825L38.25,63.289z"/>
	<path id="liquid_1_" fill="#FFFFFF" d="M54.927,41.847c0,0-1.797,2.069-3.437,2.812c-1.64,0.741-2.851,0.546-4.322,1.406
		c-1.472,0.859-2.213,2.058-2.213,2.058l-5.989,15.583c-0.65,1.759,0.313,3.815,2.097,4.505c1.784,0.689,3.801-0.222,4.491-1.966
		l0,0L54.927,41.847z M48.899,50.843c0.287-0.13,0.625,0,0.743,0.286c0.13,0.287,0,0.625-0.287,0.741
		c-0.287,0.13-0.625,0-0.743-0.284C48.47,51.298,48.613,50.959,48.899,50.843z M46.491,48.277c0.195-0.078,0.417,0,0.495,0.195
		c0.078,0.195,0,0.417-0.195,0.495c-0.196,0.078-0.417,0-0.495-0.195C46.217,48.577,46.308,48.355,46.491,48.277z M43.848,57.091
		c-0.287,0.131-0.625,0-0.743-0.286c-0.13-0.285,0-0.625,0.288-0.742c0.286-0.129,0.624,0,0.742,0.287
		C44.277,56.636,44.147,56.961,43.848,57.091z M44.381,55.046c-0.234-0.532,0-1.156,0.534-1.405c0.535-0.234,1.159,0,1.406,0.534
		c0.235,0.534,0,1.159-0.534,1.406C45.241,55.816,44.617,55.581,44.381,55.046z M45.735,60.451c0.195-0.078,0.418,0,0.496,0.195
		c0.078,0.194,0,0.416-0.195,0.494c-0.196,0.078-0.417,0-0.495-0.196C45.462,60.763,45.541,60.541,45.735,60.451z"/>
	
		<ellipse id="top_1_" transform="matrix(0.9335 0.3586 -0.3586 0.9335 14.1081 -18.2115)" fill="#FFFFFF" cx="56.149" cy="28.927" rx="3.619" ry="0.951"/>
</g>
</svg>
