<?xml version="1.0" encoding="utf-8"?>
<!-- Generator: Adobe Illustrator 15.0.0, SVG Export Plug-In . SVG Version: 6.00 Build 0)  -->
<!DOCTYPE svg PUBLIC "-//W3C//DTD SVG 1.1//EN" "http://www.w3.org/Graphics/SVG/1.1/DTD/svg11.dtd">
<svg version="1.1" id="Layer_1" xmlns="http://www.w3.org/2000/svg" xmlns:xlink="http://www.w3.org/1999/xlink" x="0px" y="0px"
	 width="100px" height="100px" viewBox="0 0 100 100" enable-background="new 0 0 100 100" xml:space="preserve">
<rect x="14.646" y="14.896" transform="matrix(-0.7071 -0.7071 0.7071 -0.7071 49.8244 121.1386)" fill="#1B7BED" width="70.71" height="70.709"/>
<g>
	<path fill="#F5F5F5" d="M52.861,42.799c0.099-3.722-0.807-4.96-1.661-6.349c-0.91-1.48-2.391-3.302-6.83-3.984
		c-4.44-0.684-11.612,0-11.612,0v30.054h6.489V52.9c0,0,0.088-0.02,0.241-0.054c0.4,0.031,0.803,0.054,1.212,0.054
		c5.309,0,9.82-2.756,11.483-6.598c0.216-0.441,0.389-0.961,0.506-1.583c0.116-0.546,0.18-1.107,0.18-1.681
		C52.869,42.959,52.863,42.879,52.861,42.799z M41.445,48.375l-2.198-0.085V36.792l2.198-0.114c3.125,0,5.657,2.959,5.657,6.19
		C47.103,46.098,44.57,48.375,41.445,48.375z"/>
	<path fill="#F5F5F5" d="M69.131,40.605c0,0-2.221-1.665-5.892-1.623c-3.671,0.043-8.47,2.178-8.47,7.044
		c0,4.269,2.578,5.592,6.037,7.215c5.242,2.459,4.653,4.866,0.938,4.85c-2.626-0.014-6.951-2.46-6.951-2.46v5.294
		c0,0,2.131,2.008,6.951,2.051c4.821,0.042,8.453-2.562,8.453-7.173c0-4.874-5.159-6.841-7.225-7.726
		c-4.388-1.879-2.674-4.271,0.309-4.271c2.647,0,5.849,1.836,5.849,1.836V40.605z"/>
</g>
</svg>
