<?xml version="1.0" encoding="utf-8"?>
<!-- Generator: Adobe Illustrator 15.0.0, SVG Export Plug-In . SVG Version: 6.00 Build 0)  -->
<!DOCTYPE svg PUBLIC "-//W3C//DTD SVG 1.1//EN" "http://www.w3.org/Graphics/SVG/1.1/DTD/svg11.dtd">
<svg version="1.1" id="Layer_1" xmlns="http://www.w3.org/2000/svg" xmlns:xlink="http://www.w3.org/1999/xlink" x="0px" y="0px"
	 width="115px" height="100px" viewBox="0 0 115 100" enable-background="new 0 0 115 100" xml:space="preserve">
<rect x="2.667" y="15.333" fill="none" stroke="#A78E65" stroke-width="3" stroke-linecap="round" stroke-miterlimit="10" width="55.333" height="65"/>
<rect x="58" y="15.25" fill="none" stroke="#A78E65" stroke-width="3" stroke-linecap="round" stroke-miterlimit="10" width="54.25" height="65"/>
<path fill="none" stroke="#A78E65" stroke-width="5" stroke-linecap="round" stroke-miterlimit="10" d="M56.833,23
	c0,0-8-3.333-18.166-1.333C28.423,23.681,10,23,10,23v50.334c0,0,19.372,1.067,25.879,0.129c6.516-0.939,20.954-0.129,20.954-0.129
	v-49"/>
<path fill="none" stroke="#A78E65" stroke-width="5" stroke-linecap="round" stroke-miterlimit="10" d="M58,23
	c0,0,8-3.333,18.166-1.333C86.41,23.681,104.833,23,104.833,23v50.334c0,0-19.372,1.067-25.88,0.129
	C72.438,72.523,58,73.334,58,73.334v-49"/>
<line fill="none" stroke="#A78E65" stroke-width="5" stroke-linecap="round" stroke-miterlimit="10" x1="65.667" y1="32.333" x2="97.333" y2="32.333"/>
<line fill="none" stroke="#A78E65" stroke-width="5" stroke-linecap="round" stroke-miterlimit="10" x1="65.667" y1="42.333" x2="97.333" y2="42.333"/>
<line fill="none" stroke="#A78E65" stroke-width="5" stroke-linecap="round" stroke-miterlimit="10" x1="65.667" y1="51.667" x2="97.333" y2="51.667"/>
<line fill="none" stroke="#A78E65" stroke-width="5" stroke-linecap="round" stroke-miterlimit="10" x1="65.667" y1="62" x2="97.333" y2="62"/>
<line fill="none" stroke="#A78E65" stroke-width="5" stroke-linecap="round" stroke-miterlimit="10" x1="18" y1="32.333" x2="49.666" y2="32.333"/>
<line fill="none" stroke="#A78E65" stroke-width="5" stroke-linecap="round" stroke-miterlimit="10" x1="18" y1="42.333" x2="49.666" y2="42.333"/>
<line fill="none" stroke="#A78E65" stroke-width="5" stroke-linecap="round" stroke-miterlimit="10" x1="18" y1="51.667" x2="49.666" y2="51.667"/>
<line fill="none" stroke="#A78E65" stroke-width="5" stroke-linecap="round" stroke-miterlimit="10" x1="18" y1="62" x2="49.666" y2="62"/>
</svg>
