<?xml version="1.0" encoding="utf-8"?>
<!-- Generator: Adobe Illustrator 15.0.0, SVG Export Plug-In . SVG Version: 6.00 Build 0)  -->
<!DOCTYPE svg PUBLIC "-//W3C//DTD SVG 1.1//EN" "http://www.w3.org/Graphics/SVG/1.1/DTD/svg11.dtd">
<svg version="1.1" id="Layer_1" xmlns="http://www.w3.org/2000/svg" xmlns:xlink="http://www.w3.org/1999/xlink" x="0px" y="0px"
	 width="115px" height="100px" viewBox="0 0 115 100" enable-background="new 0 0 115 100" xml:space="preserve">
<path fill="none" stroke="#A78E65" stroke-width="5" stroke-linecap="round" stroke-miterlimit="10" d="M5.5,39.5
	c0,0,12-0.5,19,10.5c0,0,17-23.5,45.5-1.5c0,0,2.5-15.5-12.5-32c0,0-1,8.5-5,10s-21.5,1-26,0s-4.491-3.001-1.75-8
	C29,10.75,39.25,3,52,3c13,0,44.5,7.5,59,64.5c0,0-13.663,41-107.663,20"/>
<path fill="none" stroke="#A78E65" stroke-width="5" stroke-linecap="round" stroke-miterlimit="10" d="M27.75,66.75
	c5.75,3.5,27.5,6.25,42-1.75"/>
</svg>
