<?xml version="1.0" encoding="utf-8"?>
<!-- Generator: Adobe Illustrator 15.0.0, SVG Export Plug-In . SVG Version: 6.00 Build 0)  -->
<!DOCTYPE svg PUBLIC "-//W3C//DTD SVG 1.1//EN" "http://www.w3.org/Graphics/SVG/1.1/DTD/svg11.dtd">
<svg version="1.1" id="Layer_1" xmlns="http://www.w3.org/2000/svg" xmlns:xlink="http://www.w3.org/1999/xlink" x="0px" y="0px"
	 width="100px" height="100px" viewBox="0 0 100 100" enable-background="new 0 0 100 100" xml:space="preserve">
<rect x="14.646" y="14.896" transform="matrix(-0.7071 -0.7071 0.7071 -0.7071 49.8244 121.1386)" fill="#29ABE2" width="70.71" height="70.709"/>
<g>
	<polygon fill="#B3B3B3" points="33.093,44.37 33.714,51.453 49.669,44.37 49.669,37.276 	"/>
	<polygon fill="#E6E6E6" points="67.34,29.703 49.669,37.276 49.669,44.37 66.731,36.786 	"/>
	<polygon fill="#E6E6E6" points="49.669,62.903 49.615,62.912 41.702,60.787 41.185,55.137 34.063,55.137 35.058,66.268 
		49.613,70.297 49.669,70.284 	"/>
	<polygon fill="#FFFFFF" points="49.669,44.37 49.669,51.453 58.332,51.453 57.545,60.715 49.669,62.909 49.669,70.289 
		64.177,66.26 66.087,44.37 	"/>
	<polygon fill="#E6E6E6" points="49.669,44.37 33.093,44.37 33.714,51.453 49.669,51.453 	"/>
	<polygon fill="#E6E6E6" points="49.669,36.786 49.669,29.703 49.598,29.703 31.833,29.703 32.462,36.786 	"/>
	<polygon fill="#FFFFFF" points="49.669,29.703 49.669,36.697 49.669,36.786 66.731,36.786 67.34,29.703 	"/>
</g>
</svg>
