<?xml version="1.0" encoding="utf-8"?>
<!-- Generator: Adobe Illustrator 15.0.0, SVG Export Plug-In . SVG Version: 6.00 Build 0)  -->
<!DOCTYPE svg PUBLIC "-//W3C//DTD SVG 1.1//EN" "http://www.w3.org/Graphics/SVG/1.1/DTD/svg11.dtd">
<svg version="1.1" id="Layer_1" xmlns="http://www.w3.org/2000/svg" xmlns:xlink="http://www.w3.org/1999/xlink" x="0px" y="0px"
	 width="100px" height="100px" viewBox="0 0 100 100" enable-background="new 0 0 100 100" xml:space="preserve">
<rect x="14.646" y="14.896" transform="matrix(-0.7071 -0.7071 0.7071 -0.7071 49.8244 121.1386)" fill="#0B70AB" width="70.71" height="70.709"/>
<g>
	<g>
		<path fill="#FFFFFF" d="M48.521,23.906c2.076,2.481,3.71,4.26,5.48,5.27c2.475,1.412,6.386,1.933,11.234,7.855
			c2.458,3.003,3.808,6.927,3.808,11.455c0,6.147-2.304,10.997-6.128,14.3c-3.268,2.821-7.617,4.55-12.913,4.576
			c-0.033,0-0.065,0-0.098,0c-5.88,0-10.833-2.595-14.149-6.371c-3.133-3.568-4.793-8.199-4.793-12.506
			c0-8.887,5.58-14.451,10.431-16.84c1.907-0.937,4.247-2.131,5.97-4.077C48.237,26.583,48.38,25.247,48.521,23.906 M48.521,21.562
			c-0.228,0-0.459,0.033-0.684,0.103c-0.899,0.275-1.548,1.061-1.646,1.997c-0.104,0.991-0.202,1.924-0.582,2.354
			c-1.373,1.55-3.267,2.554-5.25,3.529c-5.676,2.794-11.739,9.236-11.739,18.941c0,5.038,1.959,10.159,5.375,14.052
			c4.059,4.622,9.709,7.167,15.91,7.167h0.11c5.575-0.026,10.564-1.807,14.432-5.146c4.539-3.92,6.94-9.478,6.94-16.072
			c0-4.999-1.501-9.474-4.34-12.94c-4.086-4.991-7.606-6.503-10.177-7.607c-0.67-0.288-1.249-0.536-1.709-0.797
			c-1.405-0.802-2.841-2.345-4.845-4.739C49.864,21.861,49.202,21.562,48.521,21.562L48.521,21.562z"/>
	</g>
	<path fill="#FFFFFF" d="M56.912,53.561c-2.676-0.017-5.312-4.695-10.657-4.819c-4.021-0.094-7.188,3.275-7.119,6.52
		c0.083,3.894,2.837,4.824,5.392,4.861c5.009,0.076,9.469-5.046,12.511-5.098c2.312-0.041,4.655,4.798,6.755,4.96
		c2.421,0.187,4.227-4.501,4.069-7.341c-0.105-1.893-1.192-3.253-2.605-3.219C62.611,49.487,59.53,53.577,56.912,53.561
		L56.912,53.561z M52.278,59.807c1.155-1.151,2.38-1.831,3.761-1.797c2.197,0.054,2.292,0.571,2.93,1.858
		c0.129,0.262,0.055,0.487-0.028,0.619c-0.046,0.074-0.298,0.313-0.383,0.313c-0.212,0-0.288-0.077-0.375-0.292
		c-0.525-1.311-1.303-1.316-2.282-1.316c-1.512,0-2.171,0.736-3.063,1.477c-0.223,0.184-0.433,0.322-0.6,0.18
		c-0.137-0.113-0.247-0.27-0.244-0.389C52.001,60.179,52.079,60.005,52.278,59.807L52.278,59.807z M49.222,62.933
		c1.188,1.095,6.794,2.014,10.166-0.252c0.124-0.082,0.282-0.138,0.42-0.08c0.103,0.045,0.162,0.101,0.178,0.215
		c0.022,0.191,0.036,0.477-0.112,0.6c-2.34,1.954-8.668,3.067-11.677,0.582c-0.297-0.245-0.308-0.615-0.112-0.83
		c0.146-0.157,0.272-0.231,0.449-0.334C48.753,62.709,49.034,62.759,49.222,62.933L49.222,62.933z"/>
</g>
</svg>
