<?xml version="1.0" encoding="utf-8"?>
<!-- Generator: Adobe Illustrator 15.0.0, SVG Export Plug-In . SVG Version: 6.00 Build 0)  -->
<!DOCTYPE svg PUBLIC "-//W3C//DTD SVG 1.1//EN" "http://www.w3.org/Graphics/SVG/1.1/DTD/svg11.dtd">
<svg version="1.1" id="Layer_1" xmlns="http://www.w3.org/2000/svg" xmlns:xlink="http://www.w3.org/1999/xlink" x="0px" y="0px"
	 width="100px" height="100px" viewBox="0 0 100 100" enable-background="new 0 0 100 100" xml:space="preserve">
<rect x="14.646" y="14.897" transform="matrix(0.7071 0.7071 -0.7071 0.7071 50.178 -20.6377)" fill="#541CEA" width="70.71" height="70.709"/>
<g>
	<path fill="#F5F5F5" d="M33.869,44.866c1.77,0,2.95,0.327,3.54,0.98c0.589,0.654,0.729,1.776,0.421,3.365
		c-0.322,1.656-0.942,2.837-1.862,3.545c-0.92,0.707-2.318,1.062-4.197,1.062h-2.834l1.74-8.952H33.869z M22.517,62.878h4.659
		l1.105-5.687h3.991c1.761,0,3.209-0.186,4.347-0.556c1.137-0.368,2.171-0.989,3.101-1.86c0.781-0.717,1.413-1.508,1.896-2.375
		c0.483-0.864,0.827-1.819,1.03-2.863c0.493-2.535,0.121-4.51-1.115-5.925c-1.236-1.415-3.202-2.122-5.897-2.122h-8.959
		L22.517,62.878z"/>
	<path fill="#F5F5F5" d="M46.067,35.805h4.623l-1.105,5.686h4.118c2.591,0,4.379,0.452,5.362,1.356
		c0.982,0.904,1.277,2.368,0.885,4.393l-1.934,9.953h-4.697l1.84-9.463c0.21-1.076,0.133-1.811-0.231-2.202
		c-0.362-0.392-1.137-0.587-2.317-0.587h-3.694l-2.381,12.252H41.91L46.067,35.805z"/>
	<path fill="#F5F5F5" d="M70.234,44.866c1.77,0,2.949,0.327,3.539,0.98c0.588,0.654,0.729,1.776,0.422,3.365
		c-0.322,1.656-0.942,2.837-1.863,3.545c-0.919,0.707-2.316,1.062-4.195,1.062h-2.835l1.74-8.952H70.234z M58.882,62.878h4.659
		l1.104-5.687h3.991c1.761,0,3.21-0.186,4.347-0.556c1.139-0.368,2.172-0.989,3.103-1.86c0.78-0.717,1.412-1.508,1.896-2.375
		c0.483-0.864,0.828-1.819,1.03-2.863c0.492-2.535,0.121-4.51-1.114-5.925s-3.203-2.122-5.897-2.122H63.04L58.882,62.878z"/>
</g>
</svg>
