<?xml version="1.0" encoding="utf-8"?>
<!-- Generator: Adobe Illustrator 15.0.0, SVG Export Plug-In . SVG Version: 6.00 Build 0)  -->
<!DOCTYPE svg PUBLIC "-//W3C//DTD SVG 1.1//EN" "http://www.w3.org/Graphics/SVG/1.1/DTD/svg11.dtd">
<svg version="1.1" id="Layer_1" xmlns="http://www.w3.org/2000/svg" xmlns:xlink="http://www.w3.org/1999/xlink" x="0px" y="0px"
	 width="115px" height="100px" viewBox="0 0 115 100" enable-background="new 0 0 115 100" xml:space="preserve">
<path fill="none" stroke="#A78E65" stroke-width="5" stroke-linecap="round" stroke-miterlimit="10" d="M102.945,71.334
	c0,1.104-0.896,2-2,2h-87c-1.104,0-2-0.896-2-2v-54c0-1.104,0.896-2,2-2h87c1.104,0,2,0.896,2,2V71.334z"/>
<path fill="none" stroke="#A78E65" stroke-width="5" stroke-linecap="round" stroke-miterlimit="10" d="M94.111,64.334
	c0,1.104-0.896,2-2,2H22.779c-1.104,0-2-0.896-2-2V25c0-1.104,0.896-2,2-2h69.333c1.104,0,2,0.896,2,2V64.334z"/>
<path fill="none" stroke="#A78E65" stroke-width="5" stroke-linecap="round" stroke-miterlimit="10" d="M111.276,84.334
	c0,1.104-0.896,2-2,2H5.614c-1.104,0-2-0.896-2-2v-10c9.997,0,102.666,0,107.663,0V84.334z"/>
</svg>
