<svg xmlns="http://www.w3.org/2000/svg"><symbol viewBox="0 0 100 100" id="angular"><title>angular</title> <rect x="14.646" y="14.896" transform="matrix(-0.7071 -0.7071 0.7071 -0.7071 49.8244 121.1386)" fill="#DC2026" width="70.71" height="70.709"/> <g> <path fill="#F3F3F3" d="M57.974,52.956L49.52,56.91h-8.911l-4.188,10.477l-7.791,0.145L49.52,21.06L57.974,52.956z M57.157,50.967
		l-7.582-15.007l-6.218,14.75h6.162L57.157,50.967z"/> <polygon fill="#B4B4B4" points="49.52,21.059 49.576,35.959 56.631,50.72 49.535,50.72 49.52,56.901 59.331,56.91 63.916,67.533 
		71.372,67.67 	"/> </g> </symbol><symbol viewBox="0 0 115 100" id="church"><title>church</title> <polygon fill="none" stroke="#A78E65" stroke-width="5" stroke-linecap="round" stroke-miterlimit="10" points="86.001,28.199 
	63.083,28.199 63.083,3.518 50.583,3.518 50.583,28.198 27.666,28.198 27.666,40.699 50.583,40.699 50.583,96.148 63.083,96.148 
	63.083,40.699 86.001,40.699 "/> </symbol><symbol viewBox="0 0 100 100" id="css"><title>css</title> <rect x="14.646" y="14.896" transform="matrix(-0.7071 -0.7071 0.7071 -0.7071 49.8244 121.1386)" fill="#29ABE2" width="70.71" height="70.709"/> <g> <polygon fill="#B3B3B3" points="33.093,44.37 33.714,51.453 49.669,44.37 49.669,37.276 	"/> <polygon fill="#E6E6E6" points="67.34,29.703 49.669,37.276 49.669,44.37 66.731,36.786 	"/> <polygon fill="#E6E6E6" points="49.669,62.903 49.615,62.912 41.702,60.787 41.185,55.137 34.063,55.137 35.058,66.268 
		49.613,70.297 49.669,70.284 	"/> <polygon fill="#FFFFFF" points="49.669,44.37 49.669,51.453 58.332,51.453 57.545,60.715 49.669,62.909 49.669,70.289 
		64.177,66.26 66.087,44.37 	"/> <polygon fill="#E6E6E6" points="49.669,44.37 33.093,44.37 33.714,51.453 49.669,51.453 	"/> <polygon fill="#E6E6E6" points="49.669,36.786 49.669,29.703 49.598,29.703 31.833,29.703 32.462,36.786 	"/> <polygon fill="#FFFFFF" points="49.669,29.703 49.669,36.697 49.669,36.786 66.731,36.786 67.34,29.703 	"/> </g> </symbol><symbol viewBox="0 0 100 100" id="drupal"><title>drupal</title> <rect x="14.646" y="14.896" transform="matrix(-0.7071 -0.7071 0.7071 -0.7071 49.8244 121.1386)" fill="#0B70AB" width="70.71" height="70.709"/> <g> <g> <path fill="#FFFFFF" d="M48.521,23.906c2.076,2.481,3.71,4.26,5.48,5.27c2.475,1.412,6.386,1.933,11.234,7.855
			c2.458,3.003,3.808,6.927,3.808,11.455c0,6.147-2.304,10.997-6.128,14.3c-3.268,2.821-7.617,4.55-12.913,4.576
			c-0.033,0-0.065,0-0.098,0c-5.88,0-10.833-2.595-14.149-6.371c-3.133-3.568-4.793-8.199-4.793-12.506
			c0-8.887,5.58-14.451,10.431-16.84c1.907-0.937,4.247-2.131,5.97-4.077C48.237,26.583,48.38,25.247,48.521,23.906 M48.521,21.562
			c-0.228,0-0.459,0.033-0.684,0.103c-0.899,0.275-1.548,1.061-1.646,1.997c-0.104,0.991-0.202,1.924-0.582,2.354
			c-1.373,1.55-3.267,2.554-5.25,3.529c-5.676,2.794-11.739,9.236-11.739,18.941c0,5.038,1.959,10.159,5.375,14.052
			c4.059,4.622,9.709,7.167,15.91,7.167h0.11c5.575-0.026,10.564-1.807,14.432-5.146c4.539-3.92,6.94-9.478,6.94-16.072
			c0-4.999-1.501-9.474-4.34-12.94c-4.086-4.991-7.606-6.503-10.177-7.607c-0.67-0.288-1.249-0.536-1.709-0.797
			c-1.405-0.802-2.841-2.345-4.845-4.739C49.864,21.861,49.202,21.562,48.521,21.562L48.521,21.562z"/> </g> <path fill="#FFFFFF" d="M56.912,53.561c-2.676-0.017-5.312-4.695-10.657-4.819c-4.021-0.094-7.188,3.275-7.119,6.52
		c0.083,3.894,2.837,4.824,5.392,4.861c5.009,0.076,9.469-5.046,12.511-5.098c2.312-0.041,4.655,4.798,6.755,4.96
		c2.421,0.187,4.227-4.501,4.069-7.341c-0.105-1.893-1.192-3.253-2.605-3.219C62.611,49.487,59.53,53.577,56.912,53.561
		L56.912,53.561z M52.278,59.807c1.155-1.151,2.38-1.831,3.761-1.797c2.197,0.054,2.292,0.571,2.93,1.858
		c0.129,0.262,0.055,0.487-0.028,0.619c-0.046,0.074-0.298,0.313-0.383,0.313c-0.212,0-0.288-0.077-0.375-0.292
		c-0.525-1.311-1.303-1.316-2.282-1.316c-1.512,0-2.171,0.736-3.063,1.477c-0.223,0.184-0.433,0.322-0.6,0.18
		c-0.137-0.113-0.247-0.27-0.244-0.389C52.001,60.179,52.079,60.005,52.278,59.807L52.278,59.807z M49.222,62.933
		c1.188,1.095,6.794,2.014,10.166-0.252c0.124-0.082,0.282-0.138,0.42-0.08c0.103,0.045,0.162,0.101,0.178,0.215
		c0.022,0.191,0.036,0.477-0.112,0.6c-2.34,1.954-8.668,3.067-11.677,0.582c-0.297-0.245-0.308-0.615-0.112-0.83
		c0.146-0.157,0.272-0.231,0.449-0.334C48.753,62.709,49.034,62.759,49.222,62.933L49.222,62.933z"/> </g> </symbol><symbol viewBox="0 0 100 100" id="html"><title>html</title> <rect x="14.646" y="14.896" transform="matrix(-0.7071 -0.7071 0.7071 -0.7071 49.8244 121.1386)" fill="#DB7121" width="70.71" height="70.709"/> <g> <g> <polygon fill="#EBEBEB" points="50.711,43.72 40.875,43.72 40.197,36.109 50.711,36.109 50.711,28.676 50.686,28.676 
			32.074,28.676 32.252,30.67 34.078,51.152 50.711,51.152 		"/> <polygon fill="#EBEBEB" points="50.711,63.022 50.679,63.031 42.401,60.796 41.872,54.868 37.849,54.868 34.41,54.868 
			35.452,66.539 50.677,70.766 50.711,70.756 		"/> </g> <g> <polygon fill="#FFFFFF" points="50.686,43.72 50.686,51.152 59.838,51.152 58.975,60.792 50.686,63.029 50.686,70.762 
			65.923,66.539 66.034,65.283 67.781,45.716 67.962,43.72 65.959,43.72 		"/> <polygon fill="#FFFFFF" points="50.686,28.676 50.686,33.292 50.686,36.091 50.686,36.109 68.615,36.109 68.615,36.109 
			68.639,36.109 68.788,34.438 69.126,30.67 69.304,28.676 		"/> </g> </g> </symbol><symbol viewBox="0 0 100 100" id="illustrator"><title>illustrator</title> <rect x="14.646" y="14.896" transform="matrix(-0.7071 -0.7071 0.7071 -0.7071 49.8244 121.1386)" fill="#EFAC18" width="70.71" height="70.709"/> <path fill="#F5F5F5" d="M41.647,32.263L31.197,62.613h6.836l2.397-8.877h9.451l2.396,8.877h6.836L48.662,32.263H41.647z
	 M41.512,49.728l3.643-13.489l3.643,13.489H41.512z M60.33,62.898h6.3V40.28h-6.3V62.898z M63.837,37.417
	c1.779,0,3.222-1.442,3.222-3.221c0-1.779-1.442-3.221-3.222-3.221c-1.778,0-3.221,1.442-3.221,3.221
	C60.616,35.975,62.059,37.417,63.837,37.417z"/> </symbol><symbol viewBox="0 0 100 100" id="jekyll"><title>jekyll</title> <rect x="14.645" y="14.645" transform="matrix(0.7071 0.7071 -0.7071 0.7071 50.0009 -20.7106)" fill="#DC2026" width="70.71" height="70.71"/> <g id="jekyll-test-tube_1_"> <path id="jekyll-tube_1_" fill="#FFFFFF" d="M42.325,70.215L42.325,70.215c-0.65,0-1.289-0.116-1.9-0.353
		c-2.564-0.976-3.919-3.762-3.215-6.341l-0.026-0.013l0.169-0.441l13.032-33.85c0.195-0.496,0.104-1.693,0.014-2.356
		c-0.025-0.156-0.025-0.299,0.014-0.443l0.013-0.026c0.014-0.026,0.014-0.052,0.026-0.079c0.208-0.546,0.847-0.819,1.888-0.819
		c1.251,0,2.982,0.39,4.753,1.067c1.483,0.573,2.837,1.289,3.788,2.005c1.119,0.846,1.562,1.601,1.315,2.252
		c-0.015,0.026-0.026,0.052-0.04,0.078l-0.013,0.026c-0.065,0.128-0.156,0.234-0.274,0.325c-0.571,0.508-1.419,1.368-1.562,1.759
		L47.118,67.325l-0.026-0.015C46.165,69.082,44.355,70.215,42.325,70.215z M38.25,63.289l-0.039,0.091
		c-0.833,2.239,0.299,4.765,2.539,5.624c0.506,0.196,1.027,0.285,1.562,0.285c1.81,0,3.41-1.079,4.074-2.771l0.052-0.117
		l12.967-33.706c0.273-0.729,1.562-1.888,1.823-2.122l0.026-0.026c0.027-0.013,0.04-0.026,0.04-0.039l0.013-0.013
		c0.015-0.091-0.105-0.495-1.017-1.197c-0.871-0.664-2.135-1.328-3.554-1.875c-1.639-0.638-3.307-1.015-4.427-1.015
		c-0.74,0-0.988,0.156-1.028,0.235v0.013c0,0.014,0,0.026,0,0.052v0.013c0.026,0.195,0.274,1.927-0.063,2.825L38.25,63.289z"/> <path id="jekyll-liquid_1_" fill="#FFFFFF" d="M54.927,41.847c0,0-1.797,2.069-3.437,2.812c-1.64,0.741-2.851,0.546-4.322,1.406
		c-1.472,0.859-2.213,2.058-2.213,2.058l-5.989,15.583c-0.65,1.759,0.313,3.815,2.097,4.505c1.784,0.689,3.801-0.222,4.491-1.966
		l0,0L54.927,41.847z M48.899,50.843c0.287-0.13,0.625,0,0.743,0.286c0.13,0.287,0,0.625-0.287,0.741
		c-0.287,0.13-0.625,0-0.743-0.284C48.47,51.298,48.613,50.959,48.899,50.843z M46.491,48.277c0.195-0.078,0.417,0,0.495,0.195
		c0.078,0.195,0,0.417-0.195,0.495c-0.196,0.078-0.417,0-0.495-0.195C46.217,48.577,46.308,48.355,46.491,48.277z M43.848,57.091
		c-0.287,0.131-0.625,0-0.743-0.286c-0.13-0.285,0-0.625,0.288-0.742c0.286-0.129,0.624,0,0.742,0.287
		C44.277,56.636,44.147,56.961,43.848,57.091z M44.381,55.046c-0.234-0.532,0-1.156,0.534-1.405c0.535-0.234,1.159,0,1.406,0.534
		c0.235,0.534,0,1.159-0.534,1.406C45.241,55.816,44.617,55.581,44.381,55.046z M45.735,60.451c0.195-0.078,0.418,0,0.496,0.195
		c0.078,0.194,0,0.416-0.195,0.494c-0.196,0.078-0.417,0-0.495-0.196C45.462,60.763,45.541,60.541,45.735,60.451z"/> <ellipse id="jekyll-top_1_" transform="matrix(0.9335 0.3586 -0.3586 0.9335 14.1081 -18.2115)" fill="#FFFFFF" cx="56.149" cy="28.927" rx="3.619" ry="0.951"/> </g> </symbol><symbol viewBox="0 0 100 100" id="js"><title>js</title> <rect x="14.646" y="14.896" transform="matrix(-0.7071 -0.7071 0.7071 -0.7071 49.8244 121.1386)" fill="#F1BE21" width="70.71" height="70.709"/> <polygon fill="#FFFFFF" points="64.6,30.858 35.735,30.858 33.729,52.568 33.771,52.432 58.29,52.432 57.49,61.615 49.669,63.87 
	41.729,61.581 41.252,56.023 34.044,56.023 35.074,67.13 49.669,71.274 64.265,67.13 66.273,45.334 40.256,45.334 40.588,38.066 
	58.646,38.066 58.912,42.227 66.185,42.227 "/> </symbol><symbol viewBox="0 0 100 100" id="photoshop"><title>photoshop</title> <rect x="14.646" y="14.896" transform="matrix(-0.7071 -0.7071 0.7071 -0.7071 49.8244 121.1386)" fill="#1B7BED" width="70.71" height="70.709"/> <g> <path fill="#F5F5F5" d="M52.861,42.799c0.099-3.722-0.807-4.96-1.661-6.349c-0.91-1.48-2.391-3.302-6.83-3.984
		c-4.44-0.684-11.612,0-11.612,0v30.054h6.489V52.9c0,0,0.088-0.02,0.241-0.054c0.4,0.031,0.803,0.054,1.212,0.054
		c5.309,0,9.82-2.756,11.483-6.598c0.216-0.441,0.389-0.961,0.506-1.583c0.116-0.546,0.18-1.107,0.18-1.681
		C52.869,42.959,52.863,42.879,52.861,42.799z M41.445,48.375l-2.198-0.085V36.792l2.198-0.114c3.125,0,5.657,2.959,5.657,6.19
		C47.103,46.098,44.57,48.375,41.445,48.375z"/> <path fill="#F5F5F5" d="M69.131,40.605c0,0-2.221-1.665-5.892-1.623c-3.671,0.043-8.47,2.178-8.47,7.044
		c0,4.269,2.578,5.592,6.037,7.215c5.242,2.459,4.653,4.866,0.938,4.85c-2.626-0.014-6.951-2.46-6.951-2.46v5.294
		c0,0,2.131,2.008,6.951,2.051c4.821,0.042,8.453-2.562,8.453-7.173c0-4.874-5.159-6.841-7.225-7.726
		c-4.388-1.879-2.674-4.271,0.309-4.271c2.647,0,5.849,1.836,5.849,1.836V40.605z"/> </g> </symbol><symbol viewBox="0 0 100 100" id="php"><title>php</title> <rect x="14.646" y="14.897" transform="matrix(0.7071 0.7071 -0.7071 0.7071 50.178 -20.6377)" fill="#541CEA" width="70.71" height="70.709"/> <g> <path fill="#F5F5F5" d="M33.869,44.866c1.77,0,2.95,0.327,3.54,0.98c0.589,0.654,0.729,1.776,0.421,3.365
		c-0.322,1.656-0.942,2.837-1.862,3.545c-0.92,0.707-2.318,1.062-4.197,1.062h-2.834l1.74-8.952H33.869z M22.517,62.878h4.659
		l1.105-5.687h3.991c1.761,0,3.209-0.186,4.347-0.556c1.137-0.368,2.171-0.989,3.101-1.86c0.781-0.717,1.413-1.508,1.896-2.375
		c0.483-0.864,0.827-1.819,1.03-2.863c0.493-2.535,0.121-4.51-1.115-5.925c-1.236-1.415-3.202-2.122-5.897-2.122h-8.959
		L22.517,62.878z"/> <path fill="#F5F5F5" d="M46.067,35.805h4.623l-1.105,5.686h4.118c2.591,0,4.379,0.452,5.362,1.356
		c0.982,0.904,1.277,2.368,0.885,4.393l-1.934,9.953h-4.697l1.84-9.463c0.21-1.076,0.133-1.811-0.231-2.202
		c-0.362-0.392-1.137-0.587-2.317-0.587h-3.694l-2.381,12.252H41.91L46.067,35.805z"/> <path fill="#F5F5F5" d="M70.234,44.866c1.77,0,2.949,0.327,3.539,0.98c0.588,0.654,0.729,1.776,0.422,3.365
		c-0.322,1.656-0.942,2.837-1.863,3.545c-0.919,0.707-2.316,1.062-4.195,1.062h-2.835l1.74-8.952H70.234z M58.882,62.878h4.659
		l1.104-5.687h3.991c1.761,0,3.21-0.186,4.347-0.556c1.139-0.368,2.172-0.989,3.103-1.86c0.78-0.717,1.412-1.508,1.896-2.375
		c0.483-0.864,0.828-1.819,1.03-2.863c0.492-2.535,0.121-4.51-1.114-5.925s-3.203-2.122-5.897-2.122H63.04L58.882,62.878z"/> </g> </symbol><symbol viewBox="0 0 115 100" id="programming"><title>programming</title> <path fill="none" stroke="#A78E65" stroke-width="5" stroke-linecap="round" stroke-miterlimit="10" d="M102.945,71.334
	c0,1.104-0.896,2-2,2h-87c-1.104,0-2-0.896-2-2v-54c0-1.104,0.896-2,2-2h87c1.104,0,2,0.896,2,2V71.334z"/> <path fill="none" stroke="#A78E65" stroke-width="5" stroke-linecap="round" stroke-miterlimit="10" d="M94.111,64.334
	c0,1.104-0.896,2-2,2H22.779c-1.104,0-2-0.896-2-2V25c0-1.104,0.896-2,2-2h69.333c1.104,0,2,0.896,2,2V64.334z"/> <path fill="none" stroke="#A78E65" stroke-width="5" stroke-linecap="round" stroke-miterlimit="10" d="M111.276,84.334
	c0,1.104-0.896,2-2,2H5.614c-1.104,0-2-0.896-2-2v-10c9.997,0,102.666,0,107.663,0V84.334z"/> </symbol><symbol viewBox="0 0 115 100" id="reading"><title>reading</title> <rect x="2.667" y="15.333" fill="none" stroke="#A78E65" stroke-width="3" stroke-linecap="round" stroke-miterlimit="10" width="55.333" height="65"/> <rect x="58" y="15.25" fill="none" stroke="#A78E65" stroke-width="3" stroke-linecap="round" stroke-miterlimit="10" width="54.25" height="65"/> <path fill="none" stroke="#A78E65" stroke-width="5" stroke-linecap="round" stroke-miterlimit="10" d="M56.833,23
	c0,0-8-3.333-18.166-1.333C28.423,23.681,10,23,10,23v50.334c0,0,19.372,1.067,25.879,0.129c6.516-0.939,20.954-0.129,20.954-0.129
	v-49"/> <path fill="none" stroke="#A78E65" stroke-width="5" stroke-linecap="round" stroke-miterlimit="10" d="M58,23
	c0,0,8-3.333,18.166-1.333C86.41,23.681,104.833,23,104.833,23v50.334c0,0-19.372,1.067-25.88,0.129
	C72.438,72.523,58,73.334,58,73.334v-49"/> <line fill="none" stroke="#A78E65" stroke-width="5" stroke-linecap="round" stroke-miterlimit="10" x1="65.667" y1="32.333" x2="97.333" y2="32.333"/> <line fill="none" stroke="#A78E65" stroke-width="5" stroke-linecap="round" stroke-miterlimit="10" x1="65.667" y1="42.333" x2="97.333" y2="42.333"/> <line fill="none" stroke="#A78E65" stroke-width="5" stroke-linecap="round" stroke-miterlimit="10" x1="65.667" y1="51.667" x2="97.333" y2="51.667"/> <line fill="none" stroke="#A78E65" stroke-width="5" stroke-linecap="round" stroke-miterlimit="10" x1="65.667" y1="62" x2="97.333" y2="62"/> <line fill="none" stroke="#A78E65" stroke-width="5" stroke-linecap="round" stroke-miterlimit="10" x1="18" y1="32.333" x2="49.666" y2="32.333"/> <line fill="none" stroke="#A78E65" stroke-width="5" stroke-linecap="round" stroke-miterlimit="10" x1="18" y1="42.333" x2="49.666" y2="42.333"/> <line fill="none" stroke="#A78E65" stroke-width="5" stroke-linecap="round" stroke-miterlimit="10" x1="18" y1="51.667" x2="49.666" y2="51.667"/> <line fill="none" stroke="#A78E65" stroke-width="5" stroke-linecap="round" stroke-miterlimit="10" x1="18" y1="62" x2="49.666" y2="62"/> </symbol><symbol viewBox="0 0 115 100" id="working-out"><title>working-out</title> <path fill="none" stroke="#A78E65" stroke-width="5" stroke-linecap="round" stroke-miterlimit="10" d="M5.5,39.5
	c0,0,12-0.5,19,10.5c0,0,17-23.5,45.5-1.5c0,0,2.5-15.5-12.5-32c0,0-1,8.5-5,10s-21.5,1-26,0s-4.491-3.001-1.75-8
	C29,10.75,39.25,3,52,3c13,0,44.5,7.5,59,64.5c0,0-13.663,41-107.663,20"/> <path fill="none" stroke="#A78E65" stroke-width="5" stroke-linecap="round" stroke-miterlimit="10" d="M27.75,66.75
	c5.75,3.5,27.5,6.25,42-1.75"/> </symbol></svg>