<?xml version="1.0" encoding="utf-8"?>
<!-- Generator: Adobe Illustrator 15.0.0, SVG Export Plug-In . SVG Version: 6.00 Build 0)  -->
<!DOCTYPE svg PUBLIC "-//W3C//DTD SVG 1.1//EN" "http://www.w3.org/Graphics/SVG/1.1/DTD/svg11.dtd">
<svg version="1.1" id="Layer_1" xmlns="http://www.w3.org/2000/svg" xmlns:xlink="http://www.w3.org/1999/xlink" x="0px" y="0px"
	 width="1400px" height="600px" viewBox="0 0 1400 600" enable-background="new 0 0 1400 600" xml:space="preserve">
<linearGradient id="SVGID_1_" gradientUnits="userSpaceOnUse" x1="0" y1="300" x2="1400" y2="300">
	<stop  offset="0" style="stop-color:#33C1D6"/>
	<stop  offset="0.4663" style="stop-color:#7ED0D9"/>
	<stop  offset="0.9632" style="stop-color:#4FB95D"/>
</linearGradient>
<rect fill="url(#SVGID_1_)" width="1400" height="600"/>
<g opacity="0.1">
	<polygon fill="#FFFFFF" points="678.58,92.314 625.281,0 611.547,0 558.251,92.314 498.089,196.517 738.742,196.517 	"/>
	<polygon fill="#FFFFFF" points="505.786,600 731.035,600 678.576,509.131 618.412,404.928 558.248,509.131 	"/>
	<polygon fill="#FFFFFF" points="0,196.517 16.784,196.517 0,167.446 	"/>
	<polygon fill="#FFFFFF" points="437.926,92.314 384.63,0 370.896,0 317.598,92.314 257.438,196.517 498.089,196.517 	"/>
	<polygon fill="#FFFFFF" points="1227.74,600 1400,600 1400,508.214 1340.369,404.928 1280.203,509.131 	"/>
	<polygon fill="#FFFFFF" points="197.274,92.314 143.979,0 130.245,0 76.946,92.314 16.784,196.517 257.438,196.517 	"/>
	<polygon fill="#FFFFFF" points="987.093,600 1212.338,600 1159.878,509.131 1099.713,404.928 1039.553,509.131 	"/>
	<polygon fill="#FFFFFF" points="265.134,600 490.384,600 437.922,509.131 377.759,404.928 317.596,509.131 	"/>
	<polygon fill="#FFFFFF" points="746.436,600 971.691,600 919.227,509.131 859.062,404.928 798.896,509.131 	"/>
	<polygon fill="#FFFFFF" points="24.482,600 249.731,600 197.27,509.131 137.107,404.928 76.944,509.131 	"/>
	<polygon fill="#FFFFFF" points="1400,91.389 1347.236,0 1333.503,0 1280.209,92.314 1220.043,196.517 1400,196.517 	"/>
	<polygon fill="#FFFFFF" points="1220.043,196.517 1159.883,300.72 1099.722,404.928 1340.369,404.928 1280.209,300.72 	"/>
	<polygon fill="#FFFFFF" points="738.742,196.517 678.577,300.72 618.414,404.928 859.062,404.928 859.065,404.928 798.905,300.72 	
		"/>
	<polygon fill="#FFFFFF" points="979.393,196.517 919.227,300.72 859.065,404.928 1099.713,404.928 1099.722,404.928 
		1039.558,300.72 	"/>
	<polygon fill="#FFFFFF" points="0,584.272 0,600 9.08,600 	"/>
	<polygon fill="#FFFFFF" points="919.23,92.314 865.933,0 852.199,0 798.905,92.314 738.742,196.517 979.393,196.517 	"/>
	<polygon fill="#FFFFFF" points="1400,301.645 1340.369,404.928 1400,404.928 	"/>
	<polygon fill="#FFFFFF" points="498.089,196.517 437.926,300.72 377.763,404.928 618.412,404.928 618.414,404.928 558.251,300.72 	
		"/>
	<polygon fill="#FFFFFF" points="16.784,196.517 0,225.586 0,404.928 137.107,404.928 137.112,404.928 76.949,300.72 	"/>
	<polygon fill="#FFFFFF" points="1159.883,92.314 1106.588,0 1092.855,0 1039.558,92.314 979.393,196.517 1220.043,196.517 	"/>
	<polygon fill="#FFFFFF" points="257.438,196.517 197.274,300.72 137.112,404.928 377.759,404.928 377.763,404.928 317.6,300.72 	
		"/>
</g>
</svg>
