<?xml version="1.0" encoding="utf-8"?>
<!-- Generator: Adobe Illustrator 15.0.0, SVG Export Plug-In . SVG Version: 6.00 Build 0)  -->
<!DOCTYPE svg PUBLIC "-//W3C//DTD SVG 1.1//EN" "http://www.w3.org/Graphics/SVG/1.1/DTD/svg11.dtd">
<svg version="1.1" id="Layer_1" xmlns="http://www.w3.org/2000/svg" xmlns:xlink="http://www.w3.org/1999/xlink" x="0px" y="0px"
	 width="391.094px" height="130px" viewBox="0 0 391.094 130" enable-background="new 0 0 391.094 130" xml:space="preserve">
<linearGradient id="SVGID_1_" gradientUnits="userSpaceOnUse" x1="4.0034" y1="66.1758" x2="391.0938" y2="66.1758">
	<stop  offset="0" style="stop-color:#33C1D6"/>
	<stop  offset="0.4663" style="stop-color:#7ED0D9"/>
	<stop  offset="0.9632" style="stop-color:#4FB95D"/>
</linearGradient>
<path fill="url(#SVGID_1_)" d="M217.28,10.26l-23.005,48.727V10.26h-17.574v111.832h17.574V87.743l5.432-10.225l17.094,44.573
	h18.053l-24.443-61.987l24.443-49.845H217.28z M20.139,95.571c0,8.628-4.473,10.704-10.065,10.704c-1.917,0-4.154,0-6.071-0.159
	v15.976c2.875,0.319,5.272,0.319,8.467,0.319c13.26,0,25.242-5.751,25.242-28.117V10.26H20.139V95.571z M49.694,122.092h47.928
	v-15.976H67.268V73.365h24.124V57.389H67.268V26.236h30.354V10.26H49.694V122.092z M148.425,77.199L130.373,10.26h-22.047v111.832
	h15.816V41.094l21.887,80.998h18.053V10.26h-15.657V77.199z M356.746,35.981c0-7.988,3.195-11.023,8.786-11.023
	c5.592,0,8.787,3.036,8.787,11.023v4.633h16.615V37.1c0-17.893-8.787-28.118-25.881-28.118c-17.095,0-25.882,10.225-25.882,28.118
	c0,31.952,34.349,36.266,34.349,59.271c0,7.988-3.515,10.864-9.106,10.864s-9.106-2.876-9.106-10.864v-7.987h-16.614v6.869
	c0,17.894,8.946,28.118,26.2,28.118s26.2-10.225,26.2-28.118C391.094,63.3,356.746,58.987,356.746,35.981z M242.841,122.092h17.573
	V10.26h-17.573V122.092z M313.133,77.199L295.08,10.26h-22.047v111.832h15.816V41.094l21.887,80.998h18.053V10.26h-15.656V77.199z"
	/>
<g opacity="0.26">
	<defs>
		<path id="SVGID_2_" opacity="0.26" d="M217.28,10.26l-23.005,48.727V10.26h-17.574v111.832h17.574V87.743l5.432-10.225
			l17.094,44.573h18.053l-24.443-61.987l24.443-49.845H217.28z M20.139,95.571c0,8.628-4.473,10.704-10.065,10.704
			c-1.917,0-4.154,0-6.071-0.159v15.976c2.875,0.319,5.272,0.319,8.467,0.319c13.26,0,25.242-5.751,25.242-28.117V10.26H20.139
			V95.571z M49.694,122.092h47.928v-15.976H67.268V73.365h24.124V57.389H67.268V26.236h30.354V10.26H49.694V122.092z
			 M148.425,77.199L130.373,10.26h-22.047v111.832h15.816V41.094l21.887,80.998h18.053V10.26h-15.657V77.199z M356.746,35.981
			c0-7.988,3.195-11.023,8.786-11.023c5.592,0,8.787,3.036,8.787,11.023v4.633h16.615V37.1c0-17.893-8.787-28.118-25.881-28.118
			c-17.095,0-25.882,10.225-25.882,28.118c0,31.952,34.349,36.266,34.349,59.271c0,7.988-3.515,10.864-9.106,10.864
			s-9.106-2.876-9.106-10.864v-7.987h-16.614v6.869c0,17.894,8.946,28.118,26.2,28.118s26.2-10.225,26.2-28.118
			C391.094,63.3,356.746,58.987,356.746,35.981z M242.841,122.092h17.573V10.26h-17.573V122.092z M313.133,77.199L295.08,10.26
			h-22.047v111.832h15.816V41.094l21.887,80.998h18.053V10.26h-15.656V77.199z"/>
	</defs>
	<clipPath id="SVGID_3_">
		<use xlink:href="#SVGID_2_"  overflow="visible"/>
	</clipPath>
	<g clip-path="url(#SVGID_3_)">
		<polygon fill="#FFFFFF" points="7.769,44.511 20.618,66.766 33.467,89.021 7.769,89.021 -17.929,89.021 -5.08,66.766 		"/>
		<polygon fill="#FFFFFF" points="59.166,44.511 72.015,66.766 84.864,89.021 59.166,89.021 33.467,89.021 46.316,66.766 		"/>
		<polygon fill="#FFFFFF" points="33.467,0 46.317,22.255 59.166,44.511 33.467,44.511 7.769,44.511 20.618,22.255 		"/>
		<polygon fill="#FFFFFF" points="110.562,44.511 123.412,66.766 136.261,89.021 110.562,89.021 84.864,89.021 97.713,66.766 		"/>
		<polygon fill="#FFFFFF" points="161.959,44.511 174.808,66.766 187.657,89.021 161.959,89.021 136.261,89.021 149.11,66.766 		"/>
		<polygon fill="#FFFFFF" points="136.261,0 149.11,22.255 161.959,44.511 136.261,44.511 110.562,44.511 123.411,22.255 		"/>
		<polygon fill="#FFFFFF" points="84.864,0 97.713,22.255 110.562,44.511 84.864,44.511 59.166,44.511 72.015,22.255 		"/>
		<polygon fill="#FFFFFF" points="418.942,44.511 431.791,66.766 444.641,89.021 418.942,89.021 393.244,89.021 406.093,66.766 		
			"/>
		<polygon fill="#FFFFFF" points="393.244,0 406.094,22.255 418.942,44.511 393.244,44.511 367.546,44.511 380.395,22.255 		"/>
		<polygon fill="#FFFFFF" points="213.356,44.511 226.205,66.766 239.054,89.021 213.356,89.021 187.657,89.021 200.506,66.766 		
			"/>
		<polygon fill="#FFFFFF" points="264.752,44.511 277.602,66.766 290.451,89.021 264.752,89.021 239.054,89.021 251.902,66.766 		
			"/>
		<polygon fill="#FFFFFF" points="239.054,0 251.903,22.255 264.752,44.511 239.054,44.511 213.356,44.511 226.205,22.255 		"/>
		<polygon fill="#FFFFFF" points="316.148,44.511 328.998,66.766 341.847,89.021 316.148,89.021 290.451,89.021 303.3,66.766 		"/>
		<polygon fill="#FFFFFF" points="367.546,44.511 380.395,66.766 393.244,89.021 367.546,89.021 341.847,89.021 354.696,66.766 		
			"/>
		<polygon fill="#FFFFFF" points="341.847,0 354.696,22.255 367.546,44.511 341.847,44.511 316.148,44.511 328.998,22.255 		"/>
		<polygon fill="#FFFFFF" points="290.451,0 303.3,22.255 316.148,44.511 290.451,44.511 264.752,44.511 277.602,22.255 		"/>
		<polygon fill="#FFFFFF" points="33.466,89.021 46.316,111.276 59.165,133.532 33.466,133.532 7.768,133.532 20.617,111.276 		"/>
		<polygon fill="#FFFFFF" points="84.863,89.021 97.712,111.276 110.562,133.532 84.863,133.532 59.165,133.532 72.014,111.276 		
			"/>
		<polygon fill="#FFFFFF" points="136.26,89.021 149.109,111.276 161.958,133.532 136.26,133.532 110.562,133.532 123.411,111.276 
					"/>
		<polygon fill="#FFFFFF" points="393.243,89.021 406.092,111.276 418.941,133.532 393.243,133.532 367.545,133.532 
			380.394,111.276 		"/>
		<polygon fill="#FFFFFF" points="187.657,89.021 200.506,111.276 213.354,133.532 187.657,133.532 161.958,133.532 
			174.807,111.276 		"/>
		<polygon fill="#FFFFFF" points="239.053,89.021 251.902,111.276 264.752,133.532 239.053,133.532 213.354,133.532 
			226.203,111.276 		"/>
		<polygon fill="#FFFFFF" points="290.449,89.021 303.299,111.276 316.147,133.532 290.449,133.532 264.752,133.532 
			277.601,111.276 		"/>
		<polygon fill="#FFFFFF" points="341.847,89.021 354.695,111.276 367.545,133.532 341.847,133.532 316.147,133.532 
			328.997,111.276 		"/>
		<polygon fill="#FFFFFF" points="187.657,0 200.507,22.255 213.356,44.511 187.657,44.511 161.959,44.511 174.808,22.255 		"/>
	</g>
</g>
</svg>
